<svg version="1.0" xmlns="http://www.w3.org/2000/svg"
 width="2861.000000pt" height="605.000000pt" viewBox="0 0 2861.000000 605.000000"
 preserveAspectRatio="xMidYMid meet">
<g transform="translate(0.000000,605.000000) scale(0.100000,-0.100000)"
fill="#000000" stroke="none">
<path d="M12795 6026 c-63 -29 -102 -68 -131 -131 -78 -165 46 -355 230 -355
147 0 255 108 256 256 0 184 -190 308 -355 230z"/>
<path d="M13609 5176 c-322 -113 -424 -519 -192 -767 92 -98 208 -149 342
-149 400 0 615 443 371 766 -111 148 -341 214 -521 150z"/>
<path d="M6170 3330 l0 -970 -84 64 c-217 166 -443 239 -736 239 -216 0 -381
-38 -560 -128 -335 -169 -567 -480 -662 -885 -29 -126 -36 -409 -14 -555 19
-121 77 -307 126 -406 125 -249 325 -450 565 -565 446 -215 955 -146 1308 176
l55 50 7 -140 7 -140 429 0 429 0 0 2115 0 2115 -435 0 -435 0 0 -970z m-415
-1425 c211 -54 375 -225 420 -440 67 -319 -100 -611 -401 -701 -72 -22 -244
-25 -324 -5 -149 36 -292 143 -358 268 -67 128 -90 309 -57 452 49 204 212
372 415 425 73 20 231 20 305 1z"/>
<path d="M23307 4293 c-4 -3 -7 -955 -7 -2115 l0 -2108 430 0 430 0 0 146 0
146 58 -53 c93 -85 170 -138 287 -195 178 -86 352 -121 555 -111 235 12 441
80 631 207 87 58 265 239 321 325 176 272 258 598 229 918 -48 525 -327 931
-771 1119 -403 171 -924 102 -1236 -164 l-59 -51 -3 972 -2 971 -428 0 c-236
0 -432 -3 -435 -7z m1630 -2403 c161 -57 296 -192 353 -353 31 -86 38 -265 16
-361 -49 -207 -207 -366 -416 -417 -88 -22 -252 -17 -335 9 -205 63 -350 226
-390 435 -19 100 -19 159 1 255 44 219 200 387 415 447 81 22 274 15 356 -15z"/>
<path d="M1562 3948 c-53 -131 -1534 -3802 -1559 -3866 -4 -10 95 -12 492 -10
l497 3 148 400 147 400 773 0 773 0 148 -400 147 -400 496 -3 c273 -1 496 -1
496 1 0 2 -366 912 -814 2023 l-815 2019 -429 3 -430 2 -70 -172z m722 -1647
c120 -314 220 -579 223 -590 5 -21 5 -21 -446 -21 -248 0 -451 3 -451 8 -1 13
445 1172 450 1172 3 0 104 -256 224 -569z"/>
<path d="M17180 2095 l0 -2025 1160 0 1160 0 0 405 0 405 -697 2 -698 3 -3
1618 -2 1617 -460 0 -460 0 0 -2025z"/>
<path d="M12835 3930 c-126 -20 -227 -85 -304 -197 -50 -73 -74 -190 -60 -292
33 -231 264 -402 490 -362 138 24 260 113 318 233 82 171 54 353 -75 489 -98
102 -234 150 -369 129z"/>
<path d="M9125 2659 c-95 -12 -193 -43 -290 -91 -100 -51 -148 -83 -252 -170
l-83 -69 0 130 0 131 -435 0 -435 0 0 -1260 0 -1260 433 2 432 3 5 801 5 800
38 76 c45 92 112 157 195 189 77 30 231 32 315 5 123 -40 215 -135 260 -266
22 -65 22 -70 25 -837 l3 -773 434 0 435 0 0 779 c0 735 1 783 19 840 49 159
147 245 310 273 86 15 199 0 278 -37 66 -30 143 -106 178 -175 54 -106 55
-122 55 -932 l0 -748 435 0 436 0 -3 923 -3 922 -28 99 c-70 256 -205 424
-432 537 -118 58 -252 95 -406 109 -182 17 -326 -9 -494 -89 -125 -60 -242
-147 -360 -267 l-91 -93 -42 63 c-145 221 -396 355 -720 386 -118 11 -118 11
-217 -1z"/>
<path d="M15445 2660 c-205 -28 -445 -149 -584 -294 -19 -20 -39 -36 -43 -36
-4 0 -8 59 -8 130 l0 130 -435 0 -435 0 0 -1260 0 -1260 435 0 435 0 2 763 3
764 42 85 c102 204 330 333 533 299 163 -27 283 -129 352 -299 l23 -57 5 -775
5 -775 433 -3 433 -2 -3 922 -3 923 -23 75 c-83 271 -270 467 -554 579 -183
72 -455 113 -613 91z"/>
<path d="M20890 2660 c-550 -57 -966 -454 -1091 -1040 -32 -151 -32 -429 0
-580 43 -202 102 -344 208 -504 215 -322 551 -511 948 -532 315 -17 626 95
836 300 31 30 59 52 63 49 3 -4 6 -69 6 -145 l0 -138 428 2 427 3 3 1258 2
1257 -435 0 -435 0 0 -115 c0 -63 -4 -115 -8 -115 -5 0 -19 11 -32 25 -65 70
-247 173 -385 219 -150 50 -368 73 -535 56z m544 -756 c150 -39 289 -147 358
-279 50 -96 69 -178 69 -295 0 -117 -19 -199 -69 -295 -76 -145 -219 -248
-387 -280 -97 -19 -153 -19 -251 0 -210 40 -365 177 -430 379 -32 101 -37 255
-11 355 54 203 218 368 413 415 81 20 232 20 308 0z"/>
<path d="M27557 2659 c-270 -22 -493 -98 -656 -223 -153 -118 -246 -284 -271
-483 -27 -215 31 -400 172 -549 124 -131 298 -233 573 -339 191 -73 234 -95
273 -140 38 -42 46 -71 39 -132 -9 -84 -59 -125 -172 -143 -177 -29 -385 44
-633 222 -46 33 -84 58 -86 57 -13 -20 -337 -571 -342 -582 -4 -11 16 -31 68
-67 289 -203 611 -292 1007 -277 282 11 475 53 661 143 102 51 123 66 205 148
103 103 150 185 186 322 30 114 36 287 15 394 -26 130 -89 252 -178 343 -138
140 -283 216 -620 327 -234 77 -300 111 -331 170 -21 41 -18 97 8 136 73 112
429 86 732 -52 l73 -33 140 279 c77 154 140 284 140 289 0 10 -171 79 -286
115 -109 33 -273 64 -414 76 -128 11 -161 11 -303 -1z"/>
<path d="M12460 1330 l0 -1260 433 2 432 3 3 1258 2 1257 -435 0 -435 0 0
-1260z"/>
</g>
</svg>
