<svg version="1.0" xmlns="http://www.w3.org/2000/svg"
 width="10000.000000pt" height="2602.000000pt" viewBox="0 0 10000.000000 2602.000000"
 preserveAspectRatio="xMidYMid meet">
<metadata></metadata>
<g transform="translate(0.000000,2602.000000) scale(0.100000,-0.100000)"
fill="#000000" stroke="none">
<path d="M0 13185 l0 -12835 3793 0 c3616 0 4178 4 4712 30 2971 147 5398 799
7363 1977 1373 823 2497 1887 3358 3179 275 412 445 708 683 1184 752 1511
1196 3261 1336 5275 31 452 37 615 42 1230 7 765 -6 1152 -57 1770 -265 3177
-1378 5727 -3333 7632 -1772 1726 -4102 2794 -6987 3202 -574 82 -1031 124
-1865 173 -145 8 -1407 12 -4622 15 l-4423 4 0 -12836z m9055 8356 c461 -35
753 -70 1085 -127 1211 -208 2251 -658 3055 -1323 945 -782 1618 -1875 2014
-3274 194 -683 323 -1445 386 -2272 56 -738 59 -1628 9 -2360 -145 -2128 -723
-3797 -1727 -4995 -1133 -1351 -2803 -2116 -5017 -2299 -448 -37 -636 -41
-2042 -41 l-1378 0 0 8356 0 8355 1733 -4 c1190 -3 1779 -8 1882 -16z"/>
<path d="M26443 17423 c2 -6616 6 -8633 15 -8748 53 -652 95 -989 178 -1435
262 -1396 809 -2651 1608 -3685 233 -303 399 -489 700 -791 341 -340 557 -528
911 -792 1761 -1313 4100 -1972 7005 -1972 1912 0 3592 287 5055 865 1761 694
3143 1775 4086 3195 804 1209 1284 2595 1444 4160 53 527 49 -184 52 9183 l3
8617 -2710 0 -2710 0 0 -7952 c0 -7716 -2 -8204 -30 -8608 -116 -1651 -549
-2856 -1310 -3643 -716 -741 -1772 -1149 -3205 -1237 -218 -13 -859 -14 -1080
0 -1676 101 -2822 602 -3537 1546 -586 774 -927 1869 -1028 3304 -28 399 -30
927 -30 8638 l0 7952 -2710 0 -2710 0 3 -8597z"/>
<path d="M52710 13185 l0 -12835 3793 0 c3608 0 4181 4 4707 30 2352 117 4346
545 6064 1302 235 103 756 361 966 479 1690 941 3008 2206 3968 3805 1022
1703 1605 3757 1756 6189 30 478 39 869 33 1475 -6 581 -11 713 -42 1165 -241
3416 -1473 6155 -3647 8112 -2084 1875 -4846 2893 -8368 3083 -501 27 -979 30
-5012 30 l-4218 0 0 -12835z m8840 8365 c294 -13 554 -34 819 -66 2845 -338
4679 -1831 5492 -4472 325 -1055 489 -2308 489 -3722 -1 -1473 -183 -2764
-545 -3855 -294 -883 -704 -1635 -1243 -2275 -140 -166 -525 -549 -687 -684
-1192 -991 -2741 -1517 -4760 -1616 -121 -6 -788 -10 -1587 -10 l-1378 0 0
8355 0 8355 1588 0 c908 0 1683 -5 1812 -10z"/>
<path d="M79110 23275 l0 -2695 10445 0 10445 0 0 2695 0 2695 -10445 0
-10445 0 0 -2695z"/>
<path d="M79110 13175 l0 -2695 10445 0 10445 0 0 2695 0 2695 -10445 0
-10445 0 0 -2695z"/>
<path d="M79110 3045 l0 -2695 10445 0 10445 0 0 2695 0 2695 -10445 0 -10445
0 0 -2695z"/>
</g>
</svg>
