<?xml version="1.0" encoding="UTF-8" standalone="no"?>
<svg id="svg2" xmlns:rdf="http://www.w3.org/1999/02/22-rdf-syntax-ns#" xmlns="http://www.w3.org/2000/svg" height="200pt" width="200pt" version="1.0" preserveAspectRatio="xMidYMid meet" xmlns:cc="http://creativecommons.org/ns#" xmlns:dc="http://purl.org/dc/elements/1.1/" viewBox="0 0 200.000000 200.000000">
 <metadata id="metadata4">Created by potrace 1.12, written by Peter Selinger 2001-2015
  <rdf:RDF>
   <cc:Work rdf:about="">
    <dc:format>image/svg+xml</dc:format>
    <dc:type rdf:resource="http://purl.org/dc/dcmitype/StillImage"/>
   </cc:Work>
  </rdf:RDF>
 </metadata>
 <g id="g6" transform="translate(0 200) scale(0.1 -0.1)" fill="#fff">
  <path id="path8" d="m1147 1734c-4-5-152-11-328-14l-321-5-24-28c-32-38-31-72 5-108l29-29h194c190 0 195 0 216-23 29-31 28-72-3-102-24-25-27-25-188-25-158 0-164-1-185-23-30-32-29-81 3-112 20-21 34-25 88-25 50 0 68-4 85-20 29-27 29-83 2-110-19-19-33-20-220-20-246 0-270-8-270-89 0-16 10-37 22-49 22-20 35-21 226-24l204-3 24-28c32-37 30-62-5-98-24-23-38-29-73-29-74 0-113-49-88-110 16-39 49-50 154-50 79 0 97-3 120-21 57-44 19-129-58-129-79 0-127-55-104-120 17-50 50-60 201-60 74 0 203-7 288-16 167-17 301-14 444 11 110 20 242 62 253 81 10 19-30 173-48 184-6 4-61-7-123-23-105-29-124-31-292-31-166-1-185 1-239 23-68 27-127 77-161 135-23 41-45 124-45 171v25h479c371 0 481 3 488 13 28 35 20 358-12 482-53 203-180 332-376 380-71 18-349 32-362 19zm492-474c34-10 76-42 91-71 7-13 4-15-21-11-37 6-69-21-69-58s32-64 69-58c25 4 28 2 21-11-45-83-156-102-224-37-79 74-60 192 37 237 49 22 52 22 96 9z"/>
  <path id="path10" d="m110 1375c-32-34-30-83 5-112 24-21 36-23 144-23 103 0 122 3 144 20 13 11 28 31 31 45 7 29-15 79-39 89-9 3-72 6-139 6-117 0-123-1-146-25z"/>
 </g>
</svg>
