<svg xmlns="http://www.w3.org/2000/svg" height="200pt" width="200pt" version="1" viewBox="0 0 200.000000 200.000000"><g fill="#fff"><path d="M114.7 26.6c-.4.5-15.2 1.1-32.8 1.4l-32.1.5-2.4 2.8c-3.2 3.8-3.1 7.2.5 10.8l2.9 2.9h19.4c19 0 19.5 0 21.6 2.3 2.9 3.1 2.8 7.2-.3 10.2C89.1 60 88.8 60 72.7 60c-15.8 0-16.4.1-18.5 2.3-3 3.2-2.9 8.1.3 11.2 2 2.1 3.4 2.5 8.8 2.5 5 0 6.8.4 8.5 2 2.9 2.7 2.9 8.3.2 11-1.9 1.9-3.3 2-22 2-24.6 0-27 .8-27 8.9 0 1.6 1 3.7 2.2 4.9 2.2 2 3.5 2.1 22.6 2.4l20.4.3 2.4 2.8c3.2 3.7 3 6.2-.5 9.8-2.4 2.3-3.8 2.9-7.3 2.9-7.4 0-11.3 4.9-8.8 11 1.6 3.9 4.9 5 15.4 5 7.9 0 9.7.3 12 2.1 5.7 4.4 1.9 12.9-5.8 12.9-7.9 0-12.7 5.5-10.4 12 1.7 5 5 6 20.1 6 7.4 0 20.3.7 28.8 1.6 16.7 1.7 30.1 1.4 44.4-1.1 11-2 24.2-6.2 25.3-8.1 1-1.9-3-17.3-4.8-18.4-.6-.4-6.1.7-12.3 2.3-10.5 2.9-12.4 3.1-29.2 3.1-16.6.1-18.5-.1-23.9-2.3-6.8-2.7-12.7-7.7-16.1-13.5-2.3-4.1-4.5-12.4-4.5-17.1V116h47.9c37.1 0 48.1-.3 48.8-1.3 2.8-3.5 2-35.8-1.2-48.2-5.3-20.3-18-33.2-37.6-38-7.1-1.8-34.9-3.2-36.2-1.9zM163.9 74c3.4 1 7.6 4.2 9.1 7.1.7 1.3.4 1.5-2.1 1.1-3.7-.6-6.9 2.1-6.9 5.8s3.2 6.4 6.9 5.8c2.5-.4 2.8-.2 2.1 1.1-4.5 8.3-15.6 10.2-22.4 3.7-7.9-7.4-6-19.2 3.7-23.7 4.9-2.2 5.2-2.2 9.6-.9z"/><path d="M11 62.5c-3.2 3.4-3 8.3.5 11.2 2.4 2.1 3.6 2.3 14.4 2.3 10.3 0 12.2-.3 14.4-2 1.3-1.1 2.8-3.1 3.1-4.5.7-2.9-1.5-7.9-3.9-8.9-.9-.3-7.2-.6-13.9-.6-11.7 0-12.3.1-14.6 2.5z"/></g></svg>