<svg xmlns="http://www.w3.org/2000/svg" height="200pt" width="200pt" version="1" viewBox="0 0 200.000000 200.000000"><path d="M152.1 38.1c-10.7 1.7-20.1 3.5-20.8 4.1s-1.3 2-1.3 3.2c0 5.1 15.1 70 16.6 71.8 1.5 1.6 3.3 1.8 14.4 1.8 10.4 0 13-.3 14.1-1.6 1.6-1.9 6.1-77.9 4.7-80.7-1.2-2.3-4.1-2.1-27.7 1.4zm-53.9 6.4c-7.3.7-13.6 1.5-13.9 1.9-.3.3.1 9.5 1.1 20.3C86.3 77.6 87 87.2 87 88c0 1.3-2.6 1.8-14.2 2.8-7.8.6-14.4.9-14.7.7-.2-.3-1.3-9.8-2.3-21.2s-2.1-20.9-2.3-21.1c-.3-.3-7.9.1-17 .8L20 51.3v3.5c0 6.3 8 92.6 9.1 97.9 1.3 6.3 5.3 10.9 10.5 11.9 4.1.8 22.5-.4 23.6-1.5.5-.4 0-9.9-1.1-21.1-1-11.3-1.8-20.6-1.7-20.7.4-.5 28.7-2.6 29.1-2.1.3.3 1.3 9.5 2.3 20.6 1 11 2 20.3 2.2 20.5.5.4 33.3-2.3 33.8-2.8.3-.2-8-96-9.4-108.8-.7-6.7 1.3-6.2-20.2-4.2zm55.2 84.4c-5.5 2.5-8.4 7.3-8.4 14.1 0 10.7 5.8 16.5 16.5 16.5 10.8 0 16.5-5.8 16.5-16.7 0-6.9-2.6-11.3-8.3-13.8-5.3-2.5-11-2.5-16.3-.1z" fill="#fff"/></svg>