<?xml version="1.0" encoding="UTF-8" standalone="no"?>
<!-- Generator: Adobe Illustrator 13.0.0, SVG Export Plug-In . SVG Version: 6.00 Build 14948)  -->
<svg id="Layer_1" xmlns:rdf="http://www.w3.org/1999/02/22-rdf-syntax-ns#" style="enable-background:new 0 0 300 150" xmlns="http://www.w3.org/2000/svg" xml:space="preserve" height="150px" viewBox="0 0 300 150" width="300px" version="1.1" y="0px" x="0px" xmlns:cc="http://creativecommons.org/ns#" xmlns:dc="http://purl.org/dc/elements/1.1/"><metadata id="metadata40"><rdf:RDF><cc:Work rdf:about=""><dc:format>image/svg+xml</dc:format><dc:type rdf:resource="http://purl.org/dc/dcmitype/StillImage"/><dc:title/></cc:Work></rdf:RDF></metadata><path id="path8" fill="#fff" d="m28.418 8.068c-2.821 14.855-7.338 16.791-18.972 18.967v97.141c11.638 1.525 18.743 7.344 18.978 18.977h243.23c0.879-10.988 8.635-17.451 18.978-18.977v-97.145c-11.628-0.885-18.088-6.693-18.978-18.967h-243.23z"/><path id="path15" fill="#fff" d="m39.781 16.963c-2.55 12.908-6.652 14.589-17.202 16.468v84.33c10.55 1.322 16.994 6.377 17.202 16.475h220.51c0.802-9.551 7.828-15.152 17.208-16.475v-84.33c-10.556-0.755-16.406-5.804-17.208-16.468h-220.51z"/><path id="path22" fill="#fff" d="m42.545 20.549c-2.488 12.117-6.491 13.694-16.766 15.469v79.167c10.275 1.24 16.563 5.98 16.766 15.471h214.99c0.775-8.963 7.62-14.23 16.76-15.471v-79.161c-10.274-0.713-15.984-5.465-16.76-15.469h-215z"/><path id="path24" fill="#28363f" d="m235.6 115.99c-2.463 0-4.795-0.548-6.933-1.628-1.522-0.771-2.952-1.815-4.274-3.119l-0.702 2.72-0.23 0.899h-20.229v-80.128h21.788v16.803c1.146-0.983 2.369-1.782 3.653-2.382 2.148-0.991 4.482-1.493 6.947-1.493 2.803 0 5.29 0.45 7.396 1.338 2.169 0.927 3.849 2.249 5 3.929 1.125 1.655 1.815 3.308 2.053 4.917 0.217 1.537 0.325 4.688 0.325 9.377v28.674c0 4.836-0.322 8.353-0.991 10.753-0.683 2.534-2.319 4.758-4.857 6.6-2.52 1.82-5.53 2.74-8.95 2.74zm-8.91-54.621c-0.995 0-1.149 0.383-1.225 0.566-0.136 0.329-0.449 1.589-0.449 6.177v27.377c0 4.239 0.322 5.632 0.516 6.086 0.152 0.366 0.412 0.699 1.3 0.699 0.938 0 1.153-0.364 1.282-0.703 0.181-0.479 0.485-1.988 0.485-6.711v-26.757c0-4.068-0.34-5.486-0.544-5.969-0.2-0.464-0.5-0.774-1.37-0.774zm-50.49 53.491h-26.63v-80.128h16.282c9.938 0 16.5 0.452 20.062 1.38 3.658 0.959 6.494 2.569 8.435 4.784 1.928 2.226 3.147 4.724 3.631 7.43 0.466 2.604 0.693 7.516 0.693 15.013v27.227c0 7.133-0.336 11.815-1.029 14.313-0.72 2.588-2.007 4.653-3.824 6.136-1.77 1.438-3.966 2.459-6.531 3.033-2.5 0.55-6.13 0.81-11.08 0.81zm-4.04-64.452v48.76c1.641-0.125 2.736-0.512 3.071-1.107 0.25-0.449 0.839-2.229 0.839-8.952v-30.261c0-4.255-0.169-5.89-0.311-6.51-0.151-0.681-0.454-1.132-0.951-1.424-0.28-0.167-0.97-0.423-2.65-0.506zm-28.25 64.452h-20.018v-1.197l-0.05-34.689-4.667 34.848-0.14 1.039h-14.696l-0.148-1.029-4.988-34.855-0.056 34.688-0.002 1.197h-19.995v-80.128h28.37l0.15 1.026 0.82 5.615c0.485 3.335 1.016 6.983 1.599 10.945l1.609 11.061 3.535-27.6 0.135-1.047h28.555v80.132h-0.01zm-70.482 0h-22.599v-80.128h22.599v80.132z"/><rect id="rect26" height="77.732" width="20.2" y="35.93" x="52.028" fill="none"/><path id="path28" fill="none" d="m142.71 35.93v77.732h-17.619l-0.078-52.483-7.027 52.483h-12.606l-7.349-51.353-0.083 51.353h-17.6v-77.73h26.134c0.692 4.721 1.489 10.243 2.42 16.562l2.873 19.737 4.648-36.299h26.3z"/><path id="path30" fill="none" d="m170.96 49.182v51.228c2.878 0 4.653-0.584 5.314-1.76 0.655-1.172 0.994-4.352 0.994-9.541v-30.261c0-3.529-0.114-5.788-0.339-6.777-0.224-1-0.724-1.728-1.515-2.191-0.77-0.469-2.25-0.698-4.44-0.698m-20.19-13.252h15.084c9.738 0 16.328 0.448 19.758 1.343 3.436 0.9 6.049 2.374 7.834 4.414 1.785 2.056 2.904 4.33 3.352 6.85 0.453 2.514 0.677 7.443 0.677 14.803v27.227c0 6.98-0.333 11.639-0.983 13.992-0.656 2.352-1.796 4.193-3.431 5.527-1.629 1.326-3.638 2.254-6.032 2.789-2.395 0.525-6.001 0.787-10.826 0.787h-25.432v-77.74z"/><path id="path32" fill="none" d="m229.8 68.112c0-3.284-0.213-5.423-0.635-6.433-0.422-1.005-1.239-1.51-2.473-1.51-1.202 0-1.983 0.443-2.337 1.312-0.359 0.879-0.536 3.092-0.536 6.631v27.378c0 3.414 0.203 5.596 0.609 6.553 0.4 0.963 1.207 1.432 2.404 1.432 1.229 0 2.03-0.488 2.404-1.479 0.375-0.994 0.563-3.367 0.563-7.135v-26.743zm-5.98-32.182v18.503c1.608-1.874 3.394-3.274 5.361-4.195 1.982-0.917 4.127-1.379 6.438-1.379 2.659 0 4.966 0.417 6.928 1.244 1.957 0.838 3.451 2.004 4.477 3.503 1.025 1.504 1.645 2.978 1.857 4.414 0.203 1.437 0.313 4.502 0.313 9.202v28.674c0 4.67-0.313 8.146-0.947 10.432-0.619 2.289-2.098 4.273-4.408 5.949-2.316 1.676-5.06 2.514-8.239 2.514-2.285 0-4.414-0.5-6.393-1.5-1.982-1.004-3.794-2.504-5.423-4.496l-1.255 4.867h-18.11v-77.73h19.39z"/><path id="path34" fill="#28363f" d="m256.65 44.831h0.76c0.869 0 1.604-0.313 1.604-1.119 0-0.583-0.422-1.161-1.604-1.161-0.344 0-0.572 0.026-0.76 0.057v2.223zm0 3.648h-1.046v-6.579c0.552-0.083 1.072-0.162 1.863-0.162 0.994 0 1.649 0.208 2.04 0.5 0.396 0.287 0.604 0.734 0.604 1.364 0 0.87-0.572 1.39-1.28 1.598v0.052c0.572 0.109 0.969 0.629 1.099 1.603 0.156 1.02 0.313 1.416 0.422 1.624h-1.099c-0.167-0.208-0.317-0.812-0.453-1.676-0.156-0.843-0.572-1.155-1.416-1.155h-0.733v2.831zm1.1-8.416c-2.593 0-4.716 2.228-4.716 4.981 0 2.811 2.123 5.012 4.747 5.012 2.623 0.026 4.721-2.202 4.721-4.986 0-2.779-2.098-5.007-4.721-5.007h-0.03zm0.03-0.921c3.227 0 5.798 2.623 5.798 5.902 0 3.331-2.571 5.929-5.829 5.929-3.223 0-5.846-2.598-5.846-5.929 0-3.279 2.623-5.902 5.846-5.902h0.03z"/></svg>
