<svg xmlns="http://www.w3.org/2000/svg" height="150" viewBox="0 0 300 150" width="300"><path fill="#fff" d="M28.418 8.068C25.597 22.923 21.08 24.859 9.446 27.035v97.141c11.638 1.525 18.743 7.344 18.978 18.977h243.23c.879-10.988 8.635-17.451 18.978-18.977V27.031c-11.628-.885-18.088-6.693-18.978-18.967H28.424z"/><path fill="#fff" d="M39.781 16.963c-2.55 12.908-6.652 14.589-17.202 16.468v84.33c10.55 1.322 16.994 6.377 17.202 16.475h220.51c.802-9.551 7.828-15.152 17.208-16.475v-84.33c-10.556-.755-16.406-5.804-17.208-16.468H39.781z"/><path fill="#fff" d="M42.545 20.549c-2.488 12.117-6.491 13.694-16.766 15.469v79.167c10.275 1.24 16.563 5.98 16.766 15.471h214.99c.775-8.963 7.62-14.23 16.76-15.471V36.024c-10.274-.713-15.984-5.465-16.76-15.469h-215z"/><path fill="#28363f" d="M235.6 115.99c-2.463 0-4.795-.548-6.933-1.628-1.522-.771-2.952-1.815-4.274-3.119l-.702 2.72-.23.899h-20.229V34.734h21.788v16.803a16.07 16.07 0 0 1 3.653-2.382c2.148-.991 4.482-1.493 6.947-1.493 2.803 0 5.29.45 7.396 1.338 2.169.927 3.849 2.249 5 3.929 1.125 1.655 1.815 3.308 2.053 4.917.217 1.537.325 4.688.325 9.377v28.674c0 4.836-.322 8.353-.991 10.753-.683 2.534-2.319 4.758-4.857 6.6-2.52 1.82-5.53 2.74-8.95 2.74zm-8.91-54.621c-.995 0-1.149.383-1.225.566-.136.329-.449 1.589-.449 6.177v27.377c0 4.239.322 5.632.516 6.086.152.366.412.699 1.3.699.938 0 1.153-.364 1.282-.703.181-.479.485-1.988.485-6.711V68.103c0-4.068-.34-5.486-.544-5.969-.2-.464-.5-.774-1.37-.774zM176.2 114.86h-26.63V34.732h16.282c9.938 0 16.5.452 20.062 1.38 3.658.959 6.494 2.569 8.435 4.784 1.928 2.226 3.147 4.724 3.631 7.43.466 2.604.693 7.516.693 15.013v27.227c0 7.133-.336 11.815-1.029 14.313-.72 2.588-2.007 4.653-3.824 6.136-1.77 1.438-3.966 2.459-6.531 3.033-2.5.55-6.13.81-11.08.81zm-4.04-64.452v48.76c1.641-.125 2.736-.512 3.071-1.107.25-.449.839-2.229.839-8.952V58.848c0-4.255-.169-5.89-.311-6.51-.151-.681-.454-1.132-.951-1.424-.28-.167-.97-.423-2.65-.506zm-28.25 64.452h-20.018v-1.197l-.05-34.689-4.667 34.848-.14 1.039h-14.696l-.148-1.029-4.988-34.855-.056 34.688-.002 1.197H79.15V34.734h28.37l.15 1.026.82 5.615a6429.12 6429.12 0 0 0 1.599 10.945l1.609 11.061 3.535-27.6.135-1.047h28.555v80.132h-.01zm-70.482 0H50.829V34.732h22.599v80.132z"/><path fill="none" d="M52.028 35.93h20.2v77.732h-20.2zm90.682 0v77.732h-17.619l-.078-52.483-7.027 52.483H105.38l-7.349-51.353-.083 51.353h-17.6v-77.73h26.134c.692 4.721 1.489 10.243 2.42 16.562l2.873 19.737 4.648-36.299h26.3zm28.25 13.252v51.228c2.878 0 4.653-.584 5.314-1.76.655-1.172.994-4.352.994-9.541V58.848c0-3.529-.114-5.788-.339-6.777-.224-1-.724-1.728-1.515-2.191-.77-.469-2.25-.698-4.44-.698m-20.19-13.252h15.084c9.738 0 16.328.448 19.758 1.343 3.436.9 6.049 2.374 7.834 4.414 1.785 2.056 2.904 4.33 3.352 6.85.453 2.514.677 7.443.677 14.803v27.227c0 6.98-.333 11.639-.983 13.992-.656 2.352-1.796 4.193-3.431 5.527-1.629 1.326-3.638 2.254-6.032 2.789-2.395.525-6.001.787-10.826.787h-25.432v-77.74zM229.8 68.112c0-3.284-.213-5.423-.635-6.433-.422-1.005-1.239-1.51-2.473-1.51-1.202 0-1.983.443-2.337 1.312-.359.879-.536 3.092-.536 6.631V95.49c0 3.414.203 5.596.609 6.553.4.963 1.207 1.432 2.404 1.432 1.229 0 2.03-.488 2.404-1.479.375-.994.563-3.367.563-7.135V68.118zm-5.98-32.182v18.503c1.608-1.874 3.394-3.274 5.361-4.195 1.982-.917 4.127-1.379 6.438-1.379 2.659 0 4.966.417 6.928 1.244 1.957.838 3.451 2.004 4.477 3.503 1.025 1.504 1.645 2.978 1.857 4.414.203 1.437.313 4.502.313 9.202v28.674c0 4.67-.313 8.146-.947 10.432-.619 2.289-2.098 4.273-4.408 5.949-2.316 1.676-5.06 2.514-8.239 2.514-2.285 0-4.414-.5-6.393-1.5-1.982-1.004-3.794-2.504-5.423-4.496l-1.255 4.867h-18.11v-77.73h19.39z"/><path fill="#28363f" d="M256.65 44.831h.76c.869 0 1.604-.313 1.604-1.119 0-.583-.422-1.161-1.604-1.161-.344 0-.572.026-.76.057v2.223zm0 3.648h-1.046V41.9c.552-.083 1.072-.162 1.863-.162.994 0 1.649.208 2.04.5.396.287.604.734.604 1.364 0 .87-.572 1.39-1.28 1.598v.052c.572.109.969.629 1.099 1.603.156 1.02.313 1.416.422 1.624h-1.099c-.167-.208-.317-.812-.453-1.676-.156-.843-.572-1.155-1.416-1.155h-.733v2.831zm1.1-8.416c-2.593 0-4.716 2.228-4.716 4.981 0 2.811 2.123 5.012 4.747 5.012 2.623.026 4.721-2.202 4.721-4.986 0-2.779-2.098-5.007-4.721-5.007h-.03zm.03-.921c3.227 0 5.798 2.623 5.798 5.902 0 3.331-2.571 5.929-5.829 5.929-3.223 0-5.846-2.598-5.846-5.929 0-3.279 2.623-5.902 5.846-5.902h.03z"/></svg>