<?xml version="1.0" encoding="UTF-8" standalone="no"?>
<svg id="svg2" xmlns:rdf="http://www.w3.org/1999/02/22-rdf-syntax-ns#" xmlns="http://www.w3.org/2000/svg" height="196pt" width="196pt" version="1.0" preserveAspectRatio="xMidYMid meet" xmlns:cc="http://creativecommons.org/ns#" xmlns:dc="http://purl.org/dc/elements/1.1/" viewBox="0 0 196.000000 196.000000">
 <metadata id="metadata4">Created by potrace 1.12, written by Peter Selinger 2001-2015
  <rdf:RDF>
   <cc:Work rdf:about="">
    <dc:format>image/svg+xml</dc:format>
    <dc:type rdf:resource="http://purl.org/dc/dcmitype/StillImage"/>
   </cc:Work>
  </rdf:RDF>
 </metadata>
 <g id="g6" transform="translate(0 196) scale(0.1 -0.1)">
  <path id="path8" fill="#fff" d="m885 1954c-484-50-863-451-880-934-10-284 87-534 284-731 180-180 405-277 656-284 139-4 207 5 325 41 318 98 572 361 655 680 140 538-192 1087-730 1207-73 17-242 28-310 21zm-298-700c29-14 69-44 89-68l37-42 44 47c120 128 331 127 448-2l40-44 43 46c60 65 127 93 222 93 91 1 154-25 217-86 61-60 87-126 87-218s-26-158-87-218c-63-61-126-87-217-86-95 0-162 28-222 93l-43 46-40-44c-59-65-132-96-225-96-95 1-162 29-223 94l-44 47-37-42c-85-98-239-129-358-71-214 105-237 393-41 531 87 61 210 69 310 20z"/>
 </g>
</svg>
