<svg xmlns="http://www.w3.org/2000/svg" height="196pt" width="196pt" version="1" viewBox="0 0 196.000000 196.000000"><path fill="#fff" d="M88.5.6C40.1 5.6 2.2 45.7.5 94c-1 28.4 8.7 53.4 28.4 73.1 18 18 40.5 27.7 65.6 28.4 13.9.4 20.7-.5 32.5-4.1 31.8-9.8 57.2-36.1 65.5-68 14-53.8-19.2-108.7-73-120.7C112.2 1 95.3-.1 88.5.6zm-29.8 70c2.9 1.4 6.9 4.4 8.9 6.8l3.7 4.2 4.4-4.7c12-12.8 33.1-12.7 44.8.2l4 4.4 4.3-4.6c6-6.5 12.7-9.3 22.2-9.3 9.1-.1 15.4 2.5 21.7 8.6 6.1 6 8.7 12.6 8.7 21.8s-2.6 15.8-8.7 21.8c-6.3 6.1-12.6 8.7-21.7 8.6-9.5 0-16.2-2.8-22.2-9.3l-4.3-4.6-4 4.4c-5.9 6.5-13.2 9.6-22.5 9.6-9.5-.1-16.2-2.9-22.3-9.4l-4.4-4.7-3.7 4.2c-8.5 9.8-23.9 12.9-35.8 7.1-21.4-10.5-23.7-39.3-4.1-53.1 8.7-6.1 21-6.9 31-2z"/></svg>