<svg xmlns="http://www.w3.org/2000/svg" height="240" width="240"><path d="M240 120a120 120 0 1 1-240 0 120 120 0 1 1 240 0z" fill="#fff"/><path d="M98 175c-3.888 0-3.227-1.468-4.568-5.17l-11.44-37.627 70.804-44.237 8.263 2.162-6.865 18.813z" fill="#c8daea"/><path d="M98 175c3 0 4.33-1.367 6-3 2.578-2.52 36-35 36-35l-20.472-4.955-19 12-2.53 29.96z" fill-opacity=".635" fill="#493f3f"/><path d="M100.04 144.41l48.36 35.729c5.519 3.045 9.501 1.468 10.876-5.123l19.685-92.763c2.015-8.08-3.08-11.746-8.36-9.349l-115.59 44.571c-7.89 3.165-7.843 7.567-1.438 9.528l29.663 9.259 68.673-43.325c3.242-1.966 6.218-.91 3.776 1.258z" fill="#493f3f"/></svg>