<?xml version="1.0" encoding="UTF-8" standalone="no"?>
<!-- Created with Inkscape (http://www.inkscape.org/) -->
<svg id="svg2" xmlns:rdf="http://www.w3.org/1999/02/22-rdf-syntax-ns#" xmlns="http://www.w3.org/2000/svg" height="240" width="240" version="1.1" xmlns:cc="http://creativecommons.org/ns#" xmlns:xlink="http://www.w3.org/1999/xlink" xmlns:dc="http://purl.org/dc/elements/1.1/">
 <metadata id="metadata8">
  <rdf:RDF>
   <cc:Work rdf:about="">
    <dc:format>image/svg+xml</dc:format>
    <dc:type rdf:resource="http://purl.org/dc/dcmitype/StillImage"/>
    <dc:title/>
   </cc:Work>
  </rdf:RDF>
 </metadata>
 <path id="path2995-1-0" d="m30 70a20 20 0 1 1 -40 0 20 20 0 1 1 40 0z" transform="matrix(6,0,0,6,60,-300)" fill="#fff"/>
 <path id="path2993" d="m98 175c-3.8876 0-3.227-1.4679-4.5678-5.1695l-11.441-37.627 70.805-44.237 8.2627 2.161-6.8644 18.814z" fill="#c8daea"/>
 <path id="path2989" d="m98 175c3 0 4.3299-1.3675 6-3 2.5784-2.5203 36-35 36-35l-20.472-4.9551-19 12-2.53 29.96z" fill-opacity=".63462" fill="#493f3f"/>
 <path id="path2991" d="m100.04 144.41 48.36 35.729c5.5185 3.0449 9.5014 1.4684 10.876-5.1235l19.685-92.763c2.0154-8.0802-3.0801-11.745-8.3594-9.3482l-115.59 44.571c-7.8901 3.1647-7.8441 7.5666-1.4382 9.528l29.663 9.2583 68.673-43.325c3.2419-1.9659 6.2173-0.90899 3.7752 1.2584z" fill="#493f3f"/>
</svg>
