<?xml version="1.0" encoding="UTF-8" standalone="no"?>
<svg id="svg2" xmlns:rdf="http://www.w3.org/1999/02/22-rdf-syntax-ns#" xmlns="http://www.w3.org/2000/svg" height="440pt" width="400pt" version="1.0" preserveAspectRatio="xMidYMid meet" xmlns:cc="http://creativecommons.org/ns#" xmlns:dc="http://purl.org/dc/elements/1.1/" viewBox="0 0 400.000000 440.000000">
 <metadata id="metadata4">Created by potrace 1.12, written by Peter Selinger 2001-2015
  <rdf:RDF>
   <cc:Work rdf:about="">
    <dc:format>image/svg+xml</dc:format>
    <dc:type rdf:resource="http://purl.org/dc/dcmitype/StillImage"/>
   </cc:Work>
  </rdf:RDF>
 </metadata>
 <g id="g6" transform="translate(0 440) scale(0.1 -0.1)">
  <path id="path8" fill="#fff" d="m375 4388c-11-6-26-18-32-26-19-23-16-79 5-99 9-10 78-52 152-94 183-104 1070-602 1198-673 75-42 102-62 98-73-3-8-6-19-6-24s-312-9-778-9c-864 0-841 2-920-66-24-20-53-55-65-78l-22-41v-1510-1510l22-41c12-22 38-57 59-77 75-72-69-67 1914-67 2006 0 1844-6 1925 75 81 80 75-45 75 1624 0 1473-1 1486-21 1531-25 55-71 105-124 133-40 22-43 22-850 27-801 5-810 5-813 25-2 15 12 28 60 54 35 19 297 165 583 326s587 329 668 375c81 45 152 91 157 101 29 53-2 116-60 125-31 4-68-13-330-161-162-92-425-240-585-329-159-90-367-206-461-260-244-137-186-147-653 115-207 116-430 242-496 280-414 235-642 359-660 359-11 0-29-6-40-12zm3117-1338c57-16 120-70 153-130l30-55v-915c0-910 0-915-21-960-24-51-90-115-140-136-28-12-265-14-1505-14-1088 0-1482 3-1510 12-55 16-118 73-145 132l-24 51v916 917l28 52c30 59 81 105 138 125 33 12 284 14 1499 15 976 0 1472-4 1497-10zm-383-2510c59-30 84-78 79-151-4-52-9-64-40-95-59-59-147-64-213-12-57 44-72 140-32 199 51 76 130 98 206 59zm490 0c139-70 90-291-65-293-92-1-154 56-162 147-3 41 1 58 20 86 52 77 130 100 207 60zm-2921-85c53-62 13-155-66-155-73 0-119 65-92 131 26 62 113 75 158 24zm600 10c39-32 48-74 28-114-20-37-44-51-88-51-86 0-126 105-62 161 42 36 83 37 122 4z"/>
 </g>
</svg>
