<?xml version="1.0" encoding="UTF-8" standalone="no"?>
<svg xmlns:sketch="http://www.bohemiancoding.com/sketch/ns" xmlns="http://www.w3.org/2000/svg" height="100px" width="120px" version="1.1" xmlns:xlink="http://www.w3.org/1999/xlink" viewBox="0 0 120 100"><!-- Generator: Sketch 3.2.2 (9983) - http://www.bohemiancoding.com/sketch -->
 <title>Artboard</title>
 <desc>Created with Sketch.</desc>
 <g id="Page-1" fill-rule="evenodd" sketch:type="MSPage" fill="none">
  <g id="g14" transform="translate(60.5 50.5) scale(1 -1) translate(-60.5 -50.5)" fill="#fff" sketch:type="MSLayerGroup">
   <g id="g16" sketch:type="MSShapeGroup" transform="translate(0.25 0.75)">
    <g id="g102" transform="translate(.62962 .65975)">
     <path id="path104" d="m73.75 96.25c-2.645 1.981-4.83 2.112-5.425 1.915-0.594-0.199 0-1.454-0.33-1.915-0.331-0.466-1.255-0.331-1.455-0.73-0.198-0.396 0-0.991-0.661-1.718-0.66-0.727-21.159-22.283-23.47-25.191-1.917-1.586-9.585-5.09-10.447-6.08-0.858-0.993-29.49-42.159-30.412-43.506-2.18-3.18 1.1125-9.9525 6.8688-14.088 6.0522-4.3532 14.006-6.2482 16.886-2.8832 1.064 1.2374 29.921 42.255 30.561 43.401 0.636 1.144 1.323 9.547 2.163 11.891 1.947 3.163 15.241 29.772 15.699 30.643 0.461 0.866 1.087 0.883 1.391 1.203 0.309 0.323-0.135 1.149 0.19 1.616 0.325 0.47 1.733 0.683 1.681 1.307-0.169 1.884-3.24 4.135-3.24 4.135"/>
    </g>
    <g id="g106" transform="translate(40.951 79.352)">
     <path id="path108" d="m12.5 15c-0.666 0.725-0.472 1.324-0.675 1.721-0.2 0.397-1.127 0.257-1.463 0.719-0.333 0.462-0.066 1.866-0.672 2.024-1.8362 0.477-4.9925-1.676-4.9925-1.676-2.7587-1.833-3.6187-3.852-3.6313-4.482-0.0112-0.626 1.3738-0.485 1.7026-0.954 0.3262-0.467-0.1088-1.298 0.2-1.618 0.3074-0.323 0.9362-0.333 1.4024-1.2028 0.1738-0.3237 2.1663-4.2424 4.6976-9.1874 2.8562 3.055 5.9732 6.3637 8.6502 9.1987-2.895 3.0265-5.013 5.2335-5.219 5.4575"/>
    </g>
    <g id="g110" transform="translate(60.921 1.0059)">
     <path id="path112" d="m57.5 18.75c-0.814 1.42-29.9 42.451-30.765 43.441-0.869 0.991-8.583 4.458-10.513 6.037-0.76 0.941-3.452 3.842-6.7632 7.352-3.8563-7.635-7.515-14.818-9.2838-18.071 0.05625-0.095 0.11375-0.191 0.15875-0.264 0.85375-2.345 1.5912-10.769 2.2438-11.914 0.6474-1.143 29.948-42.011 30.908-43.336 2.276-3.13 9.783-2.2888 15.625 1.7625 6.14 4.26 10.603 11.142 8.389 14.992"/>
    </g>
   </g>
  </g>
 </g>
</svg>
