<?xml version="1.0" encoding="UTF-8" standalone="no"?>
<!-- Generator: Adobe Illustrator 17.0.0, SVG Export Plug-In . SVG Version: 6.00 Build 0)  -->
<svg id="Layer_1" xmlns:rdf="http://www.w3.org/1999/02/22-rdf-syntax-ns#" xmlns="http://www.w3.org/2000/svg" xml:space="preserve" height="100px" viewBox="0 0 100 100" width="100px" version="1.1" y="0px" x="0px" xmlns:cc="http://creativecommons.org/ns#" xmlns:dc="http://purl.org/dc/elements/1.1/"><metadata id="metadata9"><rdf:RDF><cc:Work rdf:about=""><dc:format>image/svg+xml</dc:format><dc:type rdf:resource="http://purl.org/dc/dcmitype/StillImage"/></cc:Work></rdf:RDF></metadata><path id="path3" d="m61.917 46.446c-6.098-0.062-10.166 4.037-10.158 10.232 0.008 6.167 4.069 10.585 9.851 10.719 5.801 0.134 10.5-4.739 10.379-10.763-0.11-5.523-4.668-10.133-10.072-10.188zm-11.917-46.446c-27.614 0-50 22.386-50 50s22.386 50 50 50 50-22.386 50-50-22.386-50-50-50zm27.708 64.822c-3.342 6.433-9.023 9.237-15.361 9.454-8.385-0.052-15.025-4.218-17.305-11.23-1.1-3.383-2.863-2.843-5.321-2.534-8.792 1.103-16.456-4.082-18.794-12.534-2.327-8.411 1.611-17.228 9.532-20.542 6.462-2.704 12.826-2.293 18.702 1.88 1.052 0.747 2.108 1.693 1.298 2.75-0.126 0.164-1.677 2.158-2.3 2.943-0.674 0.848-1.547 1.304-3.156 0.202-3.485-2.388-7.186-3.204-11.095-1.522-4.947 2.128-7.174 8.773-4.912 14.011 2.177 5.043 7.711 7.307 12.962 5.38 2.046-0.75 2.846-2.396 3.775-4.185 4.575-8.809 15.841-11.986 25.021-7.182 8.253 4.318 11.422 14.509 6.954 23.109z" fill="#fff"/></svg>
