<?xml version="1.0" encoding="UTF-8" standalone="no"?>
<svg id="svg2" xmlns:rdf="http://www.w3.org/1999/02/22-rdf-syntax-ns#" xmlns="http://www.w3.org/2000/svg" xml:space="preserve" height="512pt" width="512pt" version="1.0" preserveAspectRatio="xMidYMid meet" xmlns:cc="http://creativecommons.org/ns#" xmlns:dc="http://purl.org/dc/elements/1.1/" viewBox="15 15 80.000000 80.000000"><metadata id="metadata16"><rdf:RDF><cc:Work rdf:about=""><dc:format>image/svg+xml</dc:format><dc:type rdf:resource="http://purl.org/dc/dcmitype/StillImage"/></cc:Work></rdf:RDF></metadata><defs id="defs6"><clipPath id="clipPath16"><path id="path6" d="m0 87.642h86.965v-87.642h-86.965v87.642z"/></clipPath></defs><g id="g10" transform="matrix(1.25 0 0 -1.25 0 109.55)"><g id="g12"><g id="g14" clip-path="url(#clipPath16)"><g id="g20" transform="translate(58.113 37.793)"><path id="path12" d="m0 0c-0.752 0.412-4.45 2.407-5.143 2.689s-1.199 0.429-1.738-0.32c-0.54-0.746-2.074-2.417-2.539-2.912-0.467-0.495-0.916-0.541-1.668-0.128-0.752 0.411-3.192 1.314-6.02 4.033-2.202 2.116-3.646 4.683-4.065 5.467-0.419 0.783-0.003 1.183 0.395 1.55 0.358 0.331 0.8 0.867 1.2 1.3 0.399 0.433 0.54 0.747 0.814 1.249 0.275 0.502 0.164 0.954-0.013 1.344-0.178 0.391-1.569 4.219-2.15 5.777-0.581 1.557-1.229 1.326-1.676 1.343s-0.956 0.1-1.467 0.119-1.348-0.141-2.079-0.883c-0.731-0.739-2.78-2.519-2.921-6.29-0.141-3.77 2.467-7.517 2.831-8.041 0.364-0.526 4.982-8.699 12.657-12.061 7.676-3.36 7.715-2.336 9.124-2.26 1.41 0.074 4.604 1.684 5.31 3.449 0.706 1.764 0.763 3.299 0.583 3.626-0.18 0.326-0.684 0.538-1.435 0.949m-14.076-18.17c-5.076 0-9.803 1.523-13.75 4.132l-9.604-3.074 3.122 9.28c-2.992 4.121-4.759 9.184-4.759 14.653 0 13.782 11.211 24.993 24.991 24.993 13.781 0 24.992-11.211 24.992-24.993 0-13.78-11.211-24.991-24.992-24.991m0 55.013c-16.58 0-30.021-13.441-30.021-30.022 0-5.672 1.575-10.976 4.308-15.502l-5.419-16.106 16.622 5.321c4.301-2.378 9.247-3.734 14.51-3.734 16.58 0 30.022 13.442 30.022 30.021 0 16.581-13.442 30.022-30.022 30.022" fill-rule="evenodd" fill="#fff"/></g></g></g></g></svg>
